# xmcd
#
# Track frame offsets: 
#        182
#        12992
#        34265
#        44890
#        56927
#        69117
#        78820
#        90140
#        112475
#        122312
#        135962
#        149060
#        157332
#        170340
#
# Disc length: 2432 seconds
#
# Revision: 5
# Processed by: cddbd v1.5.1PL0 Copyright (c) Steve Scherf et al.
# Submitted via: ExactAudioCopy v0.95a5
#
DISCID=c1097e0e
DTITLE=Various Artist - 28 Great Blues Ballads (2 of 2)
DYEAR=1900
DGENRE=
TTITLE0=Muddy Waters - Hoochie Coochie Man
TTITLE1=Eric Clapton, Jeff Beck, Jimmy Page - I'm A Man
TTITLE2=Howlin' Wolf - Wang Dang Doodle
TTITLE3=Jimmy Reed - Honest I Do
TTITLE4=John Lee Hooker - I'm In The Mood
TTITLE5=Chuck Berry - Worried Life Blues
TTITLE6=Sonny Boy Williamson - Bring It On Home
TTITLE7=John Mayall's Bluesbreakers - All Your Love
TTITLE8=Buddy Guy - You Got To Use Your Head
TTITLE9=Memphis Slim - Guess I'm A Fool
TTITLE10=Albert King, Otis Rush - Murder
TTITLE11=Lightnin' Hopkins - You're too fast
TTITLE12=Elmore James - Dust My Broom
TTITLE13=Little Walter - Last Night
EXTD=
EXTT0=
EXTT1=
EXTT2=
EXTT3=
EXTT4=
EXTT5=
EXTT6=
EXTT7=
EXTT8=
EXTT9=
EXTT10=
EXTT11=
EXTT12=
EXTT13=
PLAYORDER=
